<svg xmlns="http://www.w3.org/2000/svg" viewBox="0 0 234.991 255.998"><g stroke-width="3.59"><path d="M35.574 134.906c27.824-5.978 24.026-39.266 23.211-46.54-1.372-11.219-14.558-30.811-32.452-29.246C3.804 61.127.516 93.669.516 93.669c-3.052 15.068 7.281 47.229 35.058 41.237m51.67-55.803c15.359 0 27.774-17.7 27.774-39.564C115.018 17.671 102.603 0 87.244 0 71.878 0 59.431 17.671 59.431 39.539c0 21.864 12.444 39.564 27.813 39.564m66.218 2.603c20.561 2.693 33.734-19.24 36.369-35.86 2.693-16.597-10.591-35.901-25.114-39.215-14.587-3.353-32.797 19.997-34.437 35.23-2 18.634 2.642 37.214 23.182 39.845m81.422 27.92c0-7.948-6.58-31.91-31.088-31.91-24.557 0-27.803 22.612-27.803 38.589 0 15.248 1.27 36.516 31.766 35.855 30.463-.675 27.124-34.531 27.124-42.533m-31.088 69.779s-31.784-24.586-50.335-51.168c-25.189-39.194-60.926-23.232-72.874-3.328-11.912 19.954-30.431 32.556-33.08 35.902-2.675 3.278-38.387 22.575-30.463 57.813 7.942 35.209 35.791 34.54 35.791 34.54s20.525 2.008 44.328-3.317c23.853-5.31 44.375 1.304 44.375 1.304s55.641 18.658 70.846-17.244c15.223-35.873-8.588-54.503-8.588-54.503"/></g></svg>
