<!-- <svg xmlns="http://www.w3.org/2000/svg" width="24" height="24" viewBox="0 0 24 24"><path fill="currentColor" d="m15.5 14l5 5l-1.5 1.5l-5-5v-.79l-.27-.28A6.47 6.47 0 0 1 9.5 16A6.5 6.5 0 0 1 3 9.5A6.5 6.5 0 0 1 9.5 3A6.5 6.5 0 0 1 16 9.5c0 1.61-.59 3.09-1.57 4.23l.28.27zm-6-9.5l-.55.03c-.24.52-.61 1.4-.88 2.47h2.86c-.27-1.07-.64-1.95-.88-2.47c-.18-.03-.36-.03-.55-.03M13.83 7a4.94 4.94 0 0 0-2.68-2.22c.24.53.55 1.3.78 2.22zM5.17 7h1.9c.23-.92.54-1.69.78-2.22A4.94 4.94 0 0 0 5.17 7M4.5 9.5c0 .5.08 1.03.23 1.5h2.14l-.12-1.5l.12-1.5H4.73c-.15.47-.23 1-.23 1.5m9.77 1.5c.15-.47.23-1 .23-1.5s-.08-1.03-.23-1.5h-2.14a9.5 9.5 0 0 1 0 3zm-6.4-3l-.12 1.5l.12 1.5h3.26a9.5 9.5 0 0 0 0-3zm1.63 6.5c.18 0 .36 0 .53-.03c.25-.52.63-1.4.9-2.47H8.07c.27 1.07.65 1.95.9 2.47zm4.33-2.5h-1.9c-.23.92-.54 1.69-.78 2.22A4.94 4.94 0 0 0 13.83 12m-8.66 0a4.94 4.94 0 0 0 2.68 2.22c-.24-.53-.55-1.3-.78-2.22z"/></svg> -->
<svg xmlns="http://www.w3.org/2000/svg" width="24" height="24" viewBox="0 0 24 24"><!-- Icon from Lets Icons by Leonid Tsvetkov - https://creativecommons.org/licenses/by/4.0/ --><g fill="none"><path stroke="currentColor" stroke-linejoin="round" stroke-width="2" d="M12 13v7.098c0 .399 0 .598-.129.67c-.129.071-.298-.035-.636-.246L4.94 16.588c-.46-.288-.69-.431-.815-.658C4 15.705 4 15.434 4 14.893V8m8 5L4 8m8 5l5.286-3.304c1.218-.761 1.827-1.142 1.827-1.696s-.609-.935-1.827-1.696L13.06 3.663c-.516-.323-.773-.484-1.06-.484s-.544.161-1.06.484L4 8"/><path fill="currentColor" d="M19 12a1 1 0 1 0 2 0zm.875-3.93L19 8.553zM19 9.107V12h2V9.108zm.59-2.544l-3.06-1.912l-1.06 1.696l3.06 1.913zM21 9.109c0-.252.001-.51-.02-.733a2 2 0 0 0-.23-.79l-1.75.97c-.027-.05-.02-.073-.011.01c.01.106.011.254.011.543zm-2.47-.848c.246.154.37.233.454.298c.067.05.043.045.016-.004l1.75-.97a2 2 0 0 0-.549-.614c-.177-.136-.397-.272-.611-.405z"/><circle cx="17.5" cy="16.5" r="2.5" stroke="currentColor" stroke-width="2"/><path stroke="currentColor" stroke-linecap="round" stroke-width="2" d="m21 20l-1.5-1.5"/><path fill="currentColor" d="M14.53 20.598a1 1 0 0 0-1.06-1.696zM11 20.375l-.53.848zm.937.444l-.063.998zm.126 0L12 19.82zm-.533-1.292l-3-1.875l-1.06 1.696l3 1.875zm1.94-.625l-.5.313l1.06 1.695l.5-.312zm-.5.313l-.5.312l1.06 1.696l.5-.312zm-2.5 2.008c.213.133.429.27.625.368c.214.108.47.206.779.226L12 19.82c.056.003.072.022-.005-.016a7 7 0 0 1-.465-.278zm2-1.696a7 7 0 0 1-.465.278c-.077.038-.061.02-.005.016l.126 1.996c.31-.02.565-.118.779-.226c.196-.099.412-.235.625-.368zm-.596 2.29q.126.008.252 0L12 19.82z"/></g></svg>
