<svg xmlns="http://www.w3.org/2000/svg" width="32" height="32" viewBox="0 0 24 24">
  <defs>
    <linearGradient id="redBlueGradient" x1="0%" y1="100%" x2="100%" y2="0%">
      <stop offset="0%" stop-color="#4884f3"/>
      <stop offset="100%" stop-color="#b96bd6"/>
    </linearGradient>
  </defs>
  <path fill="url(#redBlueGradient)" d="M18 20h-4l4-16h4m-6 0h-4L8 20h4M2 16.5A2.5 2.5 0 0 0 4.5 19 2.5 2.5 0 0 0 7 16.5 2.5 2.5 0 0 0 4.5 14 2.5 2.5 0 0 0 2 16.5m0-7A2.5 2.5 0 0 0 4.5 12 2.5 2.5 0 0 0 7 9.5 2.5 2.5 0 0 0 4.5 7 2.5 2.5 0 0 0 2 9.5"/>
</svg>
