<svg xmlns="http://www.w3.org/2000/svg" fill="#555" viewBox="0 0 48 48" height="48" width="48">
  <path d="m24.913 36.597.003-.191a1.369 1.369 134.684 0 1 1.332-1.347L28.45 35c2.333-.062 4.342-.775 6.025-2.325C36.158 31.125 37 29.2 37 26.9c0-2.3-.842-4.225-2.525-5.775-1.683-1.55-3.692-2.325-6.025-2.325H13.7l5.7 5.7-2.1 2.1L8 17.3 17.3 8l2.1 2.1-5.7 5.7h14.7c3.167 0 5.892 1.067 8.175 3.2C38.858 21.133 40 23.767 40 26.9s-1.142 5.767-3.425 7.9S31.567 38 28.4 38l-2.014.054a1.435 1.435 44.684 0 1-1.473-1.457z"/>
  <path style="fill-rule:evenodd" d="M15.89 36.596a1.612 1.542 0 0 1-1.612 1.542 1.612 1.542 0 0 1-1.612-1.542 1.612 1.542 0 0 1 1.612-1.542 1.612 1.542 0 0 1 1.613 1.542zM21.85 36.643a1.612 1.542 0 0 1-1.612 1.542 1.612 1.542 0 0 1-1.613-1.542 1.612 1.542 0 0 1 1.613-1.543 1.612 1.542 0 0 1 1.612 1.543z"/>
</svg>
