<svg width="24" height="24" viewBox="0 0 1200 1200" fill="#555" xmlns="http://www.w3.org/2000/svg">
  <path d="m585.864 1010.77 60.703-.07c138.327-.162 250.849-118.88 250.849-265.05V381.38l155.492 164.32c20.797 21.977 54.47 21.977 75.267 0 20.796-21.938 20.796-57.602 0-79.539l-246.336-260.32c-20.796-21.977-54.47-21.977-75.266 0L560.2 466.161c-20.797 21.938-20.797 57.562 0 79.539 20.76 21.977 54.47 21.977 75.266 0l155.53-164.32v364.31c0 84.113-64.772 151.238-144.392 152.55l-70.915 1.168c-29.412.485-49.722 22.828-49.722 53.914 0 31.086 29.325 57.43 58.74 57.43z"/>
  <path d="M294.909 956.894a56 56 0 0 1-56 56 56 56 0 0 1-56-56 56 56 0 0 1 56-56 56 56 0 0 1 56 56zM455.195 956.068a56 56 0 0 1-56 56 56 56 0 0 1-56-56 56 56 0 0 1 56-56 56 56 0 0 1 56 56z"/>
</svg>
